<svg id="Layer_1" data-name="Layer 1" xmlns="http://www.w3.org/2000/svg" viewBox="0 0 1000 1000"><defs><style>.cls-1{fill:#008b47;}.cls-2{fill:#232c65;}.cls-3{fill:#0b79bf;}.cls-4{font-size:98px;fill:#262d64;font-family:HelveticaNeue-Bold, Helvetica Neue;}.cls-4,.cls-7{font-weight:700;}.cls-5{fill:#000;}.cls-6{fill:#252e64;}.cls-7{font-size:35px;fill:#1579bf;font-family:Poppins-Bold, Poppins;letter-spacing:0.07em;}</style></defs><path class="cls-1" d="M120.85,429.86h0a36.27,36.27,0,0,1,36.27-36.27h69.82a36.27,36.27,0,0,1-36.27,36.27Z"/><path class="cls-2" d="M120.85,534.51h0a36.27,36.27,0,0,1,36.27-36.27h69.82a36.27,36.27,0,0,1-36.27,36.27Z"/><path class="cls-3" d="M100.14,483.76H68.6a36.27,36.27,0,0,1,36.28-36.27h93.46a36.27,36.27,0,0,1-36.27,36.27Z"/><text class="cls-4" transform="translate(237.14 484.6)">ERGON<tspan class="cls-5" x="357.5" y="0"> </tspan><tspan class="cls-6" x="384.75" y="0">I</tspan><tspan class="cls-5" x="413.66" y="0"> </tspan><tspan class="cls-2" x="440.9" y="0">T</tspan><tspan x="500.78" y="0">ECH</tspan></text><text class="cls-7" transform="translate(248.18 525.97)">EMPOWERING YOUR DIGITAL VISION</text></svg>